<?xml version="1.0" encoding="UTF-8"?><svg id="Layer_1" xmlns="http://www.w3.org/2000/svg" viewBox="0 0 12.47 15.72"><defs><style>.cls-1{fill:#fff;}</style></defs><path class="cls-1" d="M4.96,1.47c.07-.94,.95-1.66,1.91-1.42l.26,.07c.46,.12,.87,.46,1.01,.96,.22,.82,.53,2.51,.06,4.51,.15-.02,.29-.04,.44-.05,.71-.07,1.67-.07,2.52,.21,.52,.17,.99,.68,1.2,1.27,.18,.53,.16,1.16-.23,1.73,.06,.12,.1,.24,.14,.36,.08,.27,.11,.57,.11,.86s-.04,.59-.11,.86c-.04,.14-.09,.27-.16,.4,.17,.39,.11,.82,0,1.15-.11,.32-.28,.63-.49,.9,.05,.15,.08,.31,.08,.47,0,.31-.09,.62-.25,.91-.33,.59-1,1.06-1.93,1.06h-3.5c-.61,0-1.07-.08-1.47-.22-.34-.12-.67-.29-.97-.48l-.05-.03c-.5-.31-1-.61-2.07-.72-.77-.08-1.45-.7-1.45-1.55v-4c0-.85,.68-1.43,1.36-1.61,.85-.23,1.57-.79,2.13-1.41,.56-.63,.91-1.28,1.04-1.64,.2-.58,.36-1.54,.43-2.59h0Z"/></svg>