<?xml version="1.0" encoding="utf-8"?>
<!-- Generator: Adobe Illustrator 26.5.0, SVG Export Plug-In . SVG Version: 6.00 Build 0)  -->
<svg version="1.1" id="Layer_1" xmlns="http://www.w3.org/2000/svg" xmlns:xlink="http://www.w3.org/1999/xlink" x="0px" y="0px"
	 viewBox="0 0 16 16" style="enable-background:new 0 0 16 16;" xml:space="preserve">
<style type="text/css">
	.st0{fill:#636466;}
</style>
<path class="st0" d="M7,14.5c0.1,0.9,1,1.7,1.9,1.4l0.3-0.1c0.5-0.1,0.9-0.5,1-1c0.2-0.8,0.5-2.5,0.1-4.5c0.1,0,0.3,0,0.4,0.1
	c0.7,0.1,1.7,0.1,2.5-0.2c0.5-0.2,1-0.7,1.2-1.3s0.1-1.2-0.2-1.7c0.1-0.1,0.1-0.2,0.1-0.4c0.1-0.3,0.1-0.6,0.1-0.9s0-0.6-0.1-0.9
	c0-0.1-0.1-0.3-0.2-0.4c0.2-0.4,0.1-0.8,0-1.1C14,3.3,13.8,3,13.6,2.7c0.1-0.2,0.1-0.3,0.1-0.5c0-0.3-0.1-0.6-0.3-0.9
	c-0.3-0.6-1-1.1-1.9-1.1H8c-0.6,0-1.1,0.1-1.5,0.2C6.2,0.6,5.9,0.8,5.6,1l0,0C5,1.3,4.5,1.6,3.4,1.7C2.7,1.8,2,2.4,2,3.3v4
	c0,0.9,0.7,1.4,1.4,1.6C4.2,9.1,5,9.7,5.5,10.3c0.6,0.6,0.9,1.3,1,1.6C6.7,12.5,6.9,13.5,7,14.5z"/>
</svg>
